<svg xmlns="http://www.w3.org/2000/svg" width="170" height="50" viewBox="0 0 170 50">
  <path fill="#FFF" fill-rule="evenodd" d="M169,34.7943479 L166.908971,34.7943479 C166.662116,34.7943479 166.4582,34.7311086 166.303452,34.6067878 C166.152746,34.4862846 166.038074,34.3312571 165.963311,34.1461868 L164.374243,30.1016948 L157.223188,30.1016948 C156.397082,30.1016948 155.655843,30.6021316 155.357461,31.3616668 L154.263788,34.1453569 C154.197444,34.313497 154.083109,34.464043 153.923647,34.5936752 C153.759806,34.726793 153.556058,34.7943479 153.317622,34.7943479 L151.226594,34.7943479 L158.767128,16.2054862 L161.459298,16.2054862 L169,34.7943479 Z M146.720223,16.2964445 C147.461294,16.2964445 148.06193,16.8886695 148.06193,17.6191579 L148.06193,34.7033895 L146.875813,34.7033895 C146.134911,34.7033895 145.533938,34.1111645 145.533938,33.3806762 L145.533938,16.2964445 L146.720223,16.2964445 Z M139.93962,30.8101075 C140.103123,30.8101075 140.252314,30.8753385 140.382645,31.0036429 L141.431191,32.1324889 L141.377812,32.1937364 C140.608116,33.0729449 139.661613,33.767913 138.56373,34.2595527 C137.466184,34.7508605 136.127172,35 134.583737,35 C133.231422,35 131.987211,34.7661309 130.885961,34.3055298 C129.784037,33.8442649 128.830799,33.1886346 128.052514,32.356565 C127.27423,31.5248275 126.662986,30.5139949 126.235451,29.3521185 C125.808085,28.1919018 125.59154,26.8980694 125.59154,25.5063073 C125.59154,24.1143793 125.823745,22.819717 126.281589,21.6583384 C126.740275,20.495964 127.393785,19.4829737 128.223932,18.6477505 C129.053743,17.8121953 130.061707,17.1549052 131.219872,16.6939722 C132.377195,16.2333712 133.67108,16 135.065829,16 C136.444244,16 137.651242,16.2142832 138.653144,16.6367083 C139.653193,17.0586355 140.5544,17.6394077 141.332011,18.3625928 L141.390441,18.4167031 L140.52308,19.6245567 C140.456736,19.7175068 140.379446,19.7961824 140.293232,19.8575959 C140.199777,19.9244868 140.067257,19.9585131 139.900217,19.9585131 C139.769212,19.9585131 139.63164,19.9123701 139.491374,19.8214117 C139.364747,19.7397484 139.213872,19.6386652 139.039592,19.517996 C138.868342,19.4001485 138.664089,19.2716782 138.432894,19.1364026 C138.205066,19.0034507 137.92908,18.8759762 137.613354,18.7579628 C137.298976,18.6407792 136.926841,18.5408579 136.507894,18.4603564 C136.089285,18.3805189 135.599784,18.3400192 135.052863,18.3400192 C134.070494,18.3400192 133.159521,18.5083253 132.345033,18.840456 C131.531556,19.1724207 130.820963,19.6512798 130.233293,20.2639207 C129.645118,20.8770595 129.18037,21.6359308 128.852184,22.5189569 C128.522819,23.4041408 128.355948,24.409164 128.355948,25.5063073 C128.355948,26.6376431 128.522819,27.6599284 128.852184,28.5449463 C129.180707,29.4284703 129.634678,30.1855159 130.201973,30.7946711 C130.767416,31.4026645 131.446689,31.8727265 132.221774,32.1917446 C132.996691,32.5107626 133.843845,32.6725954 134.740169,32.6725954 C135.289447,32.6725954 135.789219,32.6405608 136.225341,32.5773216 C136.660116,32.5142483 137.068118,32.4141609 137.438232,32.2802132 C137.80801,32.1460994 138.156907,31.9741417 138.47499,31.7689875 C138.794925,31.5631694 139.12227,31.3132 139.448098,31.0258845 C139.612781,30.8826417 139.778137,30.8101075 139.93962,30.8101075 Z M81.2327038,16.2054862 L88.7732378,34.7943479 L86.6822092,34.7943479 C86.4355224,34.7943479 86.2316059,34.7311086 86.0765215,34.6067878 C85.9259836,34.4864506 85.8114806,34.3314231 85.7365484,34.1461868 L84.1474812,30.1016948 L76.9965945,30.1016948 C76.1704883,30.1016948 75.4290808,30.6021316 75.1308676,31.3616668 L74.0371946,34.1453569 C73.9706818,34.313497 73.8563471,34.4643749 73.6970531,34.5936752 C73.5330442,34.726793 73.3289593,34.7943479 73.0910286,34.7943479 L71,34.7943479 L78.540534,16.2054862 L81.2327038,16.2054862 Z M117.345801,16.2054862 L124.886167,34.7943479 L122.795138,34.7943479 C122.548283,34.7943479 122.344535,34.7311086 122.189619,34.6067878 C122.038913,34.4864506 121.92441,34.3314231 121.849478,34.1461868 L120.260579,30.1016948 L113.109524,30.1016948 C112.283417,30.1016948 111.54201,30.6021316 111.243797,31.3616668 L110.150124,34.1453569 C110.083779,34.313497 109.969276,34.4643749 109.810151,34.5936752 C109.645805,34.726793 109.441888,34.7943479 109.203958,34.7943479 L107.112929,34.7943479 L114.653463,16.2054862 L117.345801,16.2054862 Z M104.269548,31.0036429 L105.318093,32.1324889 L105.264715,32.1937364 C104.495355,33.0729449 103.548515,33.767913 102.450633,34.2595527 C101.353255,34.7508605 100.014074,35 98.4708081,35 C97.1184928,35 95.874282,34.7661309 94.7728632,34.3055298 C93.6711077,33.8442649 92.7177011,33.1886346 91.9395852,32.356565 C91.1611325,31.5248275 90.5498881,30.5139949 90.1223537,29.3521185 C89.6949877,28.1919018 89.4784422,26.8980694 89.4784422,25.5063073 C89.4784422,24.1143793 89.7108161,22.819717 90.1684917,21.6583384 C90.627346,20.495964 91.2808556,19.4829737 92.1110031,18.6477505 C92.9408137,17.8121953 93.9487777,17.1549052 95.1067745,16.6939722 C96.2642661,16.2333712 97.558151,16 98.9527314,16 C100.331147,16 101.538312,16.2142832 102.540214,16.6367083 C103.540264,17.0586355 104.441303,17.6394077 105.219082,18.3625928 L105.277512,18.4167031 L104.409983,19.6245567 C104.343807,19.7175068 104.266349,19.7961824 104.180134,19.8575959 C104.086848,19.9244868 103.954496,19.9585131 103.787119,19.9585131 C103.656114,19.9585131 103.518542,19.9123701 103.378444,19.8214117 C103.251817,19.7397484 103.100943,19.6386652 102.926662,19.517996 C102.755413,19.4001485 102.551328,19.2716782 102.320133,19.1364026 C102.091968,19.0034507 101.815982,18.8759762 101.500425,18.7579628 C101.185879,18.6407792 100.813912,18.5408579 100.394797,18.4603564 C99.9765238,18.3805189 99.4868547,18.3400192 98.939934,18.3400192 C97.9573964,18.3400192 97.0465916,18.5083253 96.2321042,18.840456 C95.4184586,19.1724207 94.7080343,19.6512798 94.1201956,20.2639207 C93.5321885,20.8770595 93.0674407,21.6359308 92.7390862,22.5189569 C92.4097214,23.4041408 92.24285,24.409164 92.24285,25.5063073 C92.24285,26.6376431 92.4097214,27.6599284 92.7390862,28.5449463 C93.0676091,29.4284703 93.5219169,30.1855159 94.089044,30.7946711 C94.6543189,31.4026645 95.3335916,31.8727265 96.1086766,32.1917446 C96.8835931,32.5107626 97.7310844,32.6725954 98.6270711,32.6725954 C99.176686,32.6725954 99.6762899,32.6405608 100.112244,32.5773216 C100.547019,32.5142483 100.955188,32.4141609 101.325303,32.2802132 C101.695081,32.1460994 102.04381,31.9741417 102.362061,31.7689875 C102.681828,31.5631694 103.00934,31.3132 103.335169,31.0258845 C103.499851,30.8826417 103.665207,30.8101075 103.826522,30.8101075 C103.990362,30.8101075 104.139385,30.8753385 104.269548,31.0036429 Z M10.0766089,16.4058929 L9.03184243,16.4058929 C8.44853274,16.4058929 7.87381848,16.5020028 7.32876689,16.6843092 C8.55825091,13.2036858 10.5631778,10.0132403 13.2577619,7.32669973 C17.9968792,2.60202436 24.2978374,0 30.9999157,0 C37.7021626,0 44.0029522,2.60202436 48.7420696,7.32669973 C51.4369907,10.0132403 53.4417491,13.2036858 54.6712331,16.6843092 C54.1261815,16.5020028 53.5514673,16.4058929 52.9681576,16.4058929 L51.9233911,16.4058929 C50.8007601,13.6938127 49.1415044,11.2028524 46.9977023,9.06575127 C42.7245922,4.80566309 37.0431794,2.45937172 30.9999157,2.45937172 C24.9568206,2.45937172 19.2754078,4.80566309 15.0022977,9.06575127 C12.8584956,11.2028524 11.1990714,13.6938127 10.0766089,16.4058929 Z M39.4947318,16.4058929 C36.6108797,16.4058929 34.0164072,17.6638909 32.2334447,19.6578353 C31.7622127,20.1845915 31.348115,20.7630992 30.9999157,21.3829408 C30.651885,20.7630992 30.2376188,20.1845915 29.7665553,19.6578353 C27.9835928,17.6638909 25.3891203,16.4058929 22.5052682,16.4058929 L12.7745637,16.4058929 C12.7786086,16.3974917 12.7826535,16.3889225 12.7866984,16.3805213 C12.7866984,15.0363269 13.8796667,13.9463532 15.2281385,13.9463532 L22.5052682,13.9463532 C25.2234476,13.9463532 27.7365163,14.8378902 29.7665553,16.3427158 C30.2012146,16.6648184 30.6124471,17.0163252 30.9999157,17.3918596 C31.3875529,17.0163252 31.7987854,16.6648184 32.2334447,16.3427158 C34.2634837,14.8378902 36.7765524,13.9463532 39.4947318,13.9463532 L46.7718615,13.9463532 C48.1201647,13.9463532 49.213133,15.0363269 49.213133,16.3805213 C49.2173465,16.3889225 49.2213914,16.3974917 49.2254363,16.4058929 L39.4947318,16.4058929 Z M34.7005025,30.5059884 C35.9795367,29.3840901 37.6573315,28.7032556 39.4947318,28.7032556 L55.8199875,28.7032556 C55.8186392,28.7114888 55.8172909,28.71989 55.8161111,28.7282913 C55.606787,30.130118 54.3901119,31.1626274 52.9686632,31.1626274 L39.4947318,31.1626274 C36.8468328,31.1626274 34.7005025,33.3027529 34.7005025,35.9422467 L34.7005025,47.2701091 C39.3369803,46.5141678 43.6100904,44.3411095 46.9977023,40.963653 C49.1418415,38.8262158 50.8014343,36.3347515 51.9238967,33.6221671 L52.9686632,33.6221671 C53.5519729,33.6221671 54.1266871,33.5260572 54.6717387,33.3437508 C53.4422547,36.8248784 51.4373278,40.0159959 48.7420696,42.7028725 C44.6681713,46.764524 39.4392828,49.2559884 33.7941057,49.875494 C33.7661284,49.8786865 33.7381511,49.8813748 33.7101738,49.8843993 C33.5541077,49.9010337 33.3980416,49.9164919 33.2413013,49.9302699 C33.1452347,49.9386711 33.0489996,49.9465683 32.9527644,49.9539613 C32.866136,49.9606823 32.7795075,49.9668992 32.6925419,49.972612 C32.5701834,49.9806772 32.4478249,49.9880703 32.3249607,49.9944552 C32.2944554,49.9959674 32.2641186,49.9984878 32.2334447,50 L32.2334447,47.5367637 L32.2334447,35.9424147 L32.2334447,26.1045918 C32.2334447,22.1064535 35.4843723,18.8654327 39.4947318,18.8654327 L52.9681576,18.8654327 C54.3897748,18.8654327 55.6066185,19.897942 55.8159426,21.2999368 C55.8171223,21.30817 55.8184706,21.3165712 55.8198189,21.3248044 L39.4947318,21.3248044 C36.8468328,21.3248044 34.7005025,23.46493 34.7005025,26.1045918 L34.7005025,30.5059884 Z M58.5329421,23.7843442 C59.8954026,23.7843442 61,24.8855754 61,26.2438839 L39.4947318,26.2438839 C38.6928284,26.2438839 37.9135092,26.3418421 37.1675604,26.5251566 L37.1675604,26.1045918 C37.1675604,24.8232384 38.2092932,23.7843442 39.4947318,23.7843442 L58.5329421,23.7843442 Z M22.5052682,18.8654327 C26.5156277,18.8654327 29.7665553,22.1064535 29.7665553,26.1045918 L29.7665553,35.9424147 L29.7665553,47.5367637 L29.7665553,49.9994959 L29.7665553,50 C29.7358814,49.9984878 29.7053761,49.9959674 29.6748707,49.9944552 C29.5521751,49.9880703 29.4298166,49.9806772 29.3074581,49.972612 C29.2204925,49.9668992 29.1336955,49.9606823 29.047067,49.9539613 C28.9508319,49.9465683 28.8545967,49.9386711 28.7588672,49.9302699 C28.6017899,49.9164919 28.4453867,49.9010337 28.2891521,49.8843993 C28.2613433,49.8813748 28.2337031,49.8786865 28.2060629,49.875494 C22.5607172,49.2559884 17.3319972,46.764692 13.2577619,42.7028725 C10.5626722,40.0159959 8.5577453,36.8248784 7.32826128,33.3437508 C7.8734814,33.5260572 8.44819566,33.6221671 9.03150535,33.6221671 L10.0761033,33.6221671 C11.1985657,36.3347515 12.8581585,38.8262158 15.0022977,40.963653 C18.3899096,44.3411095 22.6630197,46.5141678 27.2994975,47.2701091 L27.2994975,35.9422467 C27.2994975,33.3027529 25.1531672,31.1626274 22.5052682,31.1626274 L9.03150535,31.1626274 C7.60988812,31.1626274 6.39321298,30.130118 6.1838889,28.7282913 C6.18270913,28.71989 6.18152937,28.7114888 6.18018107,28.7032556 L22.5052682,28.7032556 C24.3426685,28.7032556 26.0206318,29.3840901 27.2994975,30.5059884 L27.2994975,26.1045918 C27.2994975,23.46493 25.1531672,21.3248044 22.5052682,21.3248044 L6.1803496,21.3248044 C6.18169791,21.3165712 6.18287767,21.30817 6.18405744,21.2999368 C6.39338152,19.897942 7.61022519,18.8654327 9.03184243,18.8654327 L22.5052682,18.8654327 Z M22.5052682,26.2438839 L1,26.2438839 C1,24.8855754 2.10459743,23.7843442 3.46705786,23.7843442 L22.5052682,23.7843442 C23.7905383,23.7843442 24.8326082,24.8232384 24.8326082,26.1045918 L24.8326082,26.5251566 C24.0864908,26.3418421 23.3071716,26.2438839 22.5052682,26.2438839 Z M83.1937377,27.6664017 L80.3542293,20.4141347 C80.193925,20.0262339 80.0344626,19.5500306 79.8792099,18.9958155 C79.8142125,19.2250371 79.7503939,19.4416441 79.6882591,19.6433127 C79.596825,19.9392592 79.5062329,20.2030052 79.4188401,20.4269153 L76.5793317,27.6664017 L83.1937377,27.6664017 Z M119.306667,27.6664017 L116.467159,20.4141347 C116.306854,20.0262339 116.147392,19.5500306 115.992139,18.9958155 C115.92731,19.2250371 115.863323,19.4416441 115.801357,19.6433127 C115.709923,19.9392592 115.61933,20.2030052 115.531769,20.4269153 L112.692429,27.6664017 L119.306667,27.6664017 Z M163.420332,27.6664017 L160.580992,20.4141347 C160.420687,20.0263999 160.260888,19.5501966 160.105804,18.9961475 C160.040301,19.2276928 159.977324,19.4414781 159.914853,19.6433127 C159.824598,19.9357736 159.734005,20.1993535 159.645771,20.4267494 L156.806262,27.6664017 L163.420332,27.6664017 Z"/>
</svg>
