<svg xmlns="http://www.w3.org/2000/svg" width="20" height="20" viewBox="0 0 20 20">
  <path fill="#675EFF" fill-rule="evenodd" d="M9,9 L1.99339768,9 C1.44494629,9 1,9.44771525 1,10 C1,10.5561352 1.44475929,11 1.99339768,11 L9,11 L9,18.0066023 C9,18.5550537 9.44771525,19 10,19 C10.5561352,19 11,18.5552407 11,18.0066023 L11,11 L18.0066023,11 C18.5550537,11 19,10.5522847 19,10 C19,9.44386482 18.5552407,9 18.0066023,9 L11,9 L11,1.99339768 C11,1.44494629 10.5522847,1 10,1 C9.44386482,1 9,1.44475929 9,1.99339768 L9,9 L9,9 Z"/>
</svg>
