<svg xmlns="http://www.w3.org/2000/svg" width="220" height="220" viewBox="0 0 220 220">
  <g fill="none" fill-rule="evenodd" transform="translate(3 4)">
    <path fill="#9EA5FF" d="M213.465456,106.5 C213.465456,165.318701 165.680276,213 106.73343,213 C47.7865838,213 0,165.318701 0,106.5 C0,47.6812993 47.7865838,0 106.73343,0 C165.680276,0 213.465456,47.6812993 213.465456,106.5"/>
    <g transform="translate(10 20)">
      <path fill="#D8E1FF" d="M155.654869,104.813031 C148.982644,104.813031 142.612493,102.713992 137.233877,98.7432171 L135.006072,97.0987829 L135.006072,132.529884 L154.91926,120.205047 C155.140223,120.067543 155.394749,119.995984 155.654869,119.995984 C155.914989,119.995984 156.169516,120.067543 156.38908,120.203643 L176.303666,132.529884 L176.303666,97.0987829 L174.075862,98.7432171 C168.697245,102.713992 162.327095,104.813031 155.654869,104.813031"/>
      <path fill="#D8E1FF" d="M127.295044,73.5529279 C127.295044,89.2424008 140.017164,102.006409 155.655149,102.006409 C171.293134,102.006409 184.015254,89.2424008 184.015254,73.5529279 C184.015254,57.863455 171.293134,45.1008504 155.655149,45.1008504 C140.017164,45.1008504 127.295044,57.863455 127.295044,73.5529279"/>
      <path fill="#FFF" d="M18.6465699,1.40296047 C9.77870526,1.40296047 2.56386316,8.28937907 2.56386316,16.754286 L2.56386316,38.5865341 L34.7292767,38.5865341 L34.7292767,16.754286 C34.7292767,8.28937907 27.5144346,1.40296047 18.6465699,1.40296047"/>
      <path fill="#FFF" d="M69.6916827,163.178796 L69.6916827,154.340664 C69.6916827,153.566153 70.3196075,152.937564 71.0901789,152.937564 L154.650329,152.937564 L154.650329,123.668881 L134.344164,136.237858 C134.121803,136.373959 133.867277,136.44692 133.607156,136.44692 C133.369412,136.44692 133.134465,136.385184 132.92469,136.267323 C132.484164,136.021781 132.210059,135.553145 132.210059,135.043819 L132.210059,94.1139667 L131.878615,93.7210984 C127.118134,88.0834395 124.497352,80.9206101 124.497352,73.5529279 C124.497352,57.2699434 137.173322,43.5798891 153.353923,42.3886566 L154.650329,42.2946488 L154.650329,29.8786101 C154.650329,14.1779124 141.91842,1.40267984 126.267848,1.40267984 L29.3170962,1.40267984 L31.8777429,3.82723798 C35.5194271,7.27465659 37.5262692,11.8656023 37.5262692,16.7554085 L37.5262692,163.178796 C37.5262692,171.643703 44.7411113,178.530122 53.6089759,178.530122 C62.4768406,178.530122 69.6916827,171.643703 69.6916827,163.178796"/>
      <path fill="#FFF" d="M72.4886752,163.178796 C72.4886752,168.071409 70.4860286,172.663757 66.8513368,176.10837 L64.2948857,178.530122 L160.942164,178.530122 C169.810029,178.530122 177.024871,171.643703 177.024871,163.178796 L177.024871,155.743765 L72.4886752,155.743765 L72.4886752,163.178796 Z"/>
      <path fill="#9EA5FF" d="M133.672886,95.4107124 L133.672886,105.396581 C140.079397,109.539937 147.699803,111.954674 155.887998,111.954674 C163.719577,111.954674 171.030916,109.743387 177.259818,105.926953 L177.259818,95.4107124 L155.583126,104.063635 L133.672886,95.4107124 Z" opacity=".6" style="mix-blend-mode:multiply"/>
      <path fill="#9EA5FF" d="M68.0022992 145.508426C65.0752466 145.508426 62.7006 147.889488 62.7006 150.826178L62.2894421 165.184108C62.2894421 170.407852 57.686991 174.657844 52.0286752 174.657844 46.3703594 174.657844 39.2743895 170.407852 39.2743895 165.184108L38.692615 165.184108 41.9622992 177.132914 53.3656376 180.324968 58.419803 180.702402C58.419803 180.702402 64.6710812 179.563084 65.2025098 179.031309 65.7325398 178.499534 70.6202842 173.451178 71.1503143 171.987743 71.6803444 170.524309 71.8509609 159.995441 71.983818 157.86834 72.1166752 155.739836 159.195442 158.557263 159.195442 156.82724 159.195442 155.65986 158.717156 148.405829 158.601081 145.508426L68.0022992 145.508426zM38.0507053 34.1127473C37.9010662 27.9433132 38.2255173 27.9138481 38.2255173 25.9579256 38.2255173 24.0006 38.1136376 19.8586465 37.9639985 17.4509256 37.8129609 15.0432047 36.9906451 12.1780729 36.3906902 10.5238171 35.7893368 8.86815814 27.9004195 4.72339845 27.3004647 4.12146822 26.6991113 3.51953798 23.1916827.964491473 23.1916827.964491473L17.6844045.438328682 7.89632932 6.05073178.983562406 17.1141814 4.05046466 16.9247628C4.05046466 11.0163054 9.66962256 6.39870078 16.0705398 6.39870078 22.4700586 6.39870078 27.6766602 11.205724 27.6766602 17.1141814L27.6766602 37.5278946C27.6766602 37.5278946 38.2003444 40.2821814 38.0507053 34.1127473" opacity=".6"/>
      <path stroke="#675EFF" stroke-linecap="round" stroke-linejoin="round" stroke-width="5.6" d="M156.281675 42.7944333L156.281675 29.8788907C156.281675 13.3770225 142.948412-.000140310078 126.500698-.000140310078L22.0260361-.000140310078M156.281675 152.236294L156.281675 124.525053"/>
      <path stroke="#675EFF" stroke-linecap="round" stroke-linejoin="round" stroke-width="5.6" d="M57.4548406 179.933784L161.175713 179.933784C170.829532 179.933784 178.656916 172.431404 178.656916 163.179357L178.656916 154.341226 71.3237278 154.341226 71.3237278 163.179357C71.3237278 172.431404 63.4963444 179.933784 53.8425248 179.933784 44.1873068 179.933784 36.3613218 172.431404 36.3613218 163.179357L36.3613218 155.681187 36.3613218 89.4478147 36.3613218 80.6630008 36.3613218 17.2358302 36.3613218 16.7545667C36.3613218 7.49971395 28.5339383.000140310078 18.8801188.000140310078 9.22490075.000140310078 1.39891579 7.49971395 1.39891579 16.7545667L1.39891579 39.9899155 35.5446 39.9899155M185.64674 73.5529279C185.64674 90.0435713 172.323266 103.409509 155.888138 103.409509 139.453011 103.409509 126.129537 90.0435713 126.129537 73.5529279 126.129537 57.0636876 139.453011 43.6977496 155.888138 43.6977496 172.323266 43.6977496 185.64674 57.0636876 185.64674 73.5529279z"/>
      <polyline stroke="#675EFF" stroke-linecap="round" stroke-linejoin="round" stroke-width="5.6" points="171.432 64.742 151.983 84.254 143.469 75.712"/>
      <polyline stroke="#675EFF" stroke-linecap="round" stroke-linejoin="round" stroke-width="5.6" points="177.934 94.354 177.934 135.044 155.887 121.398 133.841 135.044 133.841 94.12"/>
      <path stroke="#675EFF" stroke-linecap="round" stroke-linejoin="round" stroke-width="5.6" d="M59.552585 35.7789295L113.39469 35.7789295M59.552585 54.4288047L132.624014 54.4288047M59.552585 73.0775574L122.952014 73.0775574M59.552585 91.7275729L111.64657 91.7275729"/>
      <path stroke="#675EFF" stroke-linecap="round" stroke-linejoin="round" stroke-width="4.9" d="M59.552585,121.573491 L70.126615,106.633274 L64.3298481,134.228057 L76.9414872,119.501111 L77.6952767,130.297971 C77.6952767,130.297971 79.9706301,121.444405 90.6075925,121.444405 L99.0433218,121.444405"/>
    </g>
  </g>
</svg>
