<svg width="50" height="50" viewBox="0 0 50 50" xmlns="http://www.w3.org/2000/svg"><title>904F5A36-2EB5-4B75-8C1E-45CF6B17B51C</title><path d="M25 50C11.193 50 0 38.807 0 25S11.193 0 25 0s25 11.193 25 25-11.193 25-25 25zm0-1.667c12.887 0 23.333-10.446 23.333-23.333C48.333 12.113 37.887 1.667 25 1.667 12.113 1.667 1.667 12.113 1.667 25c0 12.887 10.446 23.333 23.333 23.333zm3.052-31.751c-1.18 0-1.301.278-1.301 1.424v1.527h3.767c.171 0 .346.069.468.206.12.142.19.316.173.506l-.243 3.474c-.034.345-.313.624-.66.624h-3.505V37.68c0 .364-.296.66-.641.66h-4.34a.66.66 0 0 1-.66-.66V24.343h-2.117a.664.664 0 0 1-.66-.676v-3.474a.66.66 0 0 1 .66-.66h2.116v-1.79c0-4.097 2.014-6.076 6.162-6.076 1.372 0 2.69.173 3.905.521.33.086.521.417.487.729l-.47 3.385a.636.636 0 0 1-.277.453.703.703 0 0 1-.52.105c-.746-.157-1.667-.278-2.344-.278z" fill-rule="nonzero" fill="#00E3BF"/></svg>