<svg xmlns="http://www.w3.org/2000/svg" width="30" height="30" viewBox="0 0 30 30">
  <path fill="#00E3BF" d="M15,30 C6.71572875,30 0,23.2842712 0,15 C0,6.71572875 6.71572875,0 15,0 C23.2842712,0 30,6.71572875 30,15 C30,23.2842712 23.2842712,30 15,30 Z M15,29 C22.7319865,29 29,22.7319865 29,15 C29,7.2680135 22.7319865,1 15,1 C7.2680135,1 1,7.2680135 1,15 C1,22.7319865 7.2680135,29 15,29 Z M16.8312706,9.94893007 C16.1233779,9.94893007 16.0503444,10.1160158 16.0503444,10.803389 L16.0503444,11.7198867 L18.3105799,11.7198867 C18.4136636,11.7198867 18.5186493,11.760992 18.5913025,11.8435834 C18.6639556,11.9284584 18.7057977,12.0327442 18.695147,12.1469258 L18.5498407,14.2311206 C18.5289197,14.4381699 18.3615512,14.6056362 18.1538621,14.6056362 L16.0503444,14.6056362 L16.0503444,22.6078632 C16.0503444,22.8263307 15.8730859,23.0036928 15.6657772,23.0036928 L13.0616756,23.0036928 C12.8433358,23.0036928 12.6656969,22.8263307 12.6656969,22.6078632 L12.6656969,14.6056362 L11.3959786,14.6056362 C11.1776388,14.6056362 11,14.4282742 11,14.199911 L11,12.1157162 C11,11.8968681 11.1776388,11.7198867 11.3959786,11.7198867 L12.6656969,11.7198867 L12.6656969,10.646199 C12.6656969,8.18748862 13.8737932,7 16.3626388,7 C17.1857875,7 17.976984,7.10390525 18.7057977,7.31285758 C18.9039773,7.3642393 19.0184725,7.56291528 18.9975515,7.7501731 L18.7160681,9.78146373 C18.7057977,9.88574959 18.6434149,9.99003545 18.5498407,10.0528353 C18.4562665,10.1160158 18.3410105,10.1358073 18.2375463,10.1160158 C17.7898356,10.0216257 17.2375196,9.94893007 16.8312706,9.94893007 Z"/>
</svg>
