<svg width="30" height="30" viewBox="0 0 30 30" xmlns="http://www.w3.org/2000/svg" xmlns:xlink="http://www.w3.org/1999/xlink"><title>C34771AC-2A1B-42D8-963C-1F7D1840935E</title><defs><circle id="a" cx="15" cy="15" r="15"/><mask id="b" x="0" y="0" width="30" height="30" fill="#fff"><use xlink:href="#a"/></mask></defs><g fill="none" fill-rule="evenodd"><use stroke="#FFF" mask="url(#b)" stroke-width="2" xlink:href="#a"/><path d="M16.831 9.949c.407 0 .959.073 1.407.167.103.02.218 0 .312-.063a.381.381 0 0 0 .166-.272l.282-2.03a.406.406 0 0 0-.292-.438A8.52 8.52 0 0 0 16.363 7c-2.49 0-3.697 1.187-3.697 3.646v1.074h-1.27a.396.396 0 0 0-.396.396V14.2c0 .228.178.406.396.406h1.27v8.002c0 .218.177.396.396.396h2.604a.394.394 0 0 0 .384-.396v-8.002h2.104a.407.407 0 0 0 .396-.375l.145-2.084a.405.405 0 0 0-.104-.303.373.373 0 0 0-.28-.124h-2.26v-.917c0-.687.072-.854.78-.854" fill="#FFF"/></g></svg>