<svg width="50" height="50" viewBox="0 0 50 50" xmlns="http://www.w3.org/2000/svg"><title>E4A662D5-97C7-48A6-A6AB-21C1967B9A01</title><path d="M25 50C11.193 50 0 38.807 0 25S11.193 0 25 0s25 11.193 25 25-11.193 25-25 25zm0-1.667c12.887 0 23.333-10.446 23.333-23.333C48.333 12.113 37.887 1.667 25 1.667 12.113 1.667 1.667 12.113 1.667 25c0 12.887 10.446 23.333 23.333 23.333zM6.7 25.208c.108-6.44 6.04-12.079 12.493-11.864 3.092-.144 5.998 1.2 8.366 3.085a44.624 44.624 0 0 1-3.175 3.282c-2.847-1.963-6.896-2.524-9.742-.256-4.073 2.81-4.258 9.447-.341 12.473 3.81 3.45 11.01 1.737 12.062-3.545-2.386-.036-4.778 0-7.164-.077-.006-1.42-.012-2.841-.006-4.262 3.989-.012 7.977-.018 11.972.012.24 3.342-.203 6.9-2.26 9.662-3.116 4.375-9.371 5.652-14.251 3.778-4.898-1.862-8.367-7.024-7.954-12.288zm29.445-1.182c.006-1.193.018-2.381.03-3.568h3.558c.006 1.187.012 2.38.024 3.568 1.19.012 2.386.012 3.576.024v3.551c-1.19.012-2.38.018-3.576.03-.012 1.194-.018 2.381-.024 3.569H36.17c-.012-1.188-.012-2.375-.024-3.563l-3.577-.036v-3.55c1.19-.013 2.38-.019 3.577-.025z" fill="#00E3BF" fill-rule="evenodd"/></svg>