<svg xmlns="http://www.w3.org/2000/svg" width="30" height="30" viewBox="0 0 30 30">
  <path fill="#00E3BF" fill-rule="evenodd" d="M15,30 C6.71572875,30 0,23.2842712 0,15 C0,6.71572875 6.71572875,0 15,0 C23.2842712,0 30,6.71572875 30,15 C30,23.2842712 23.2842712,30 15,30 Z M4.01996898,15.1247237 C3.77237583,18.2831972 5.85364183,21.3804104 8.79227585,22.4976432 C11.7201672,23.622023 15.4734543,22.8557601 17.3429361,20.231016 C18.577321,18.5731621 18.8428186,16.4390101 18.6990713,14.4337598 C16.3021752,14.4158922 13.9091158,14.4194657 11.5155448,14.4266127 C11.5122196,15.2788952 11.5155448,16.1311776 11.5193814,16.9834601 C12.9509712,17.0299157 14.3861418,17.0084746 15.8179874,17.0299157 C15.1864713,20.1988544 10.8661243,21.2264942 8.58049163,19.1569207 C6.23014712,17.3413217 6.34166635,13.3594091 8.78511407,11.6729671 C10.4929441,10.312225 12.9220683,10.6489008 14.6301541,11.8268833 C15.3010599,11.2073896 15.928995,10.5450138 16.5354448,9.85762334 C15.1148535,8.72584127 13.370703,7.92026973 11.5155448,8.00628926 C7.64408818,7.8773876 4.08468083,11.2612475 4.01996898,15.1247237 Z M21.6870705,14.4158922 C20.9693573,14.4194657 20.255225,14.4230392 19.5410927,14.4301863 L19.5410927,16.5607647 C20.255225,16.5679117 20.9729382,16.5750588 21.6870705,16.5822058 C21.6939765,17.294866 21.6939765,18.007271 21.7013941,18.7199313 L23.8399544,18.7199313 C23.8435353,18.007271 23.8468604,17.294866 23.8542779,16.5786323 C24.5717354,16.5714853 25.2858677,16.5679117 26,16.5607647 L26,14.4301863 C25.2858677,14.4230392 24.5684102,14.4230392 23.8542779,14.4158922 C23.8468604,13.703232 23.8435353,12.9869982 23.8399544,12.2745932 L21.7047192,12.2745932 C21.6978132,12.9869982 21.6906514,13.6996585 21.6870705,14.4158922 Z"/>
</svg>
