<svg width="30" height="30" viewBox="0 0 30 30" xmlns="http://www.w3.org/2000/svg" xmlns:xlink="http://www.w3.org/1999/xlink"><title>426497E1-33F4-490F-B462-1E070ABB717E</title><defs><circle id="a" cx="15" cy="15" r="15"/><mask id="b" x="0" y="0" width="30" height="30" fill="#fff"><use xlink:href="#a"/></mask></defs><g fill="none" fill-rule="evenodd"><use stroke="#FFF" mask="url(#b)" stroke-width="2" xlink:href="#a"/><path d="M23.469 21.5h-3.75v-5.91c0-.408-.047-1.817-1.64-1.817-1.407 0-1.642 1.318-1.642 1.818V21.5h-3.75V11.045h3.75v1.41s.75-1.41 2.954-1.41c2.25 0 4.078 1.5 4.078 4.546V21.5zM9.406 9.91c-1.125 0-1.875-.774-1.875-1.728 0-.955.75-1.682 1.875-1.682s1.828.727 1.875 1.682c0 .954-.703 1.727-1.875 1.727zm1.875 8.363V21.5h-3.75V11.045h3.75v7.228z" fill="#FFF"/></g></svg>