<svg xmlns="http://www.w3.org/2000/svg" width="30" height="30" viewBox="0 0 30 30">
  <path fill="#00E3BF" fill-rule="evenodd" d="M15,30 C6.71572875,30 8.8817842e-16,23.2842712 8.8817842e-16,15 C8.8817842e-16,6.71572875 6.71572875,-8.8817842e-16 15,-8.8817842e-16 C23.2842712,-8.8817842e-16 30,6.71572875 30,15 C30,23.2842712 23.2842712,30 15,30 Z M11.0459559,17.7894831 L11.0459559,10.5338681 L7.28125,10.5338681 L7.28125,21.0294118 L11.0459559,21.0294118 L11.0459559,17.7894831 Z M9.16360294,9.39304813 C10.3400735,9.39304813 11.0459559,8.61729055 11.0459559,7.65900178 C10.9988971,6.70071301 10.2930147,5.97058824 9.16360294,5.97058824 C8.03419118,5.97058824 7.28125,6.70071301 7.28125,7.65900178 C7.28125,8.61729055 8.03419118,9.39304813 9.16360294,9.39304813 Z M23.28125,21.0294118 L23.28125,15.097148 C23.28125,12.0397504 21.4459559,10.5338681 19.1871324,10.5338681 C16.9753676,10.5338681 16.2224265,11.9484848 16.2224265,11.9484848 L16.2224265,10.5338681 L12.4577206,10.5338681 L12.4577206,21.0294118 L16.2224265,21.0294118 L16.2224265,15.097148 C16.2224265,14.5951872 16.4577206,13.271836 17.8694853,13.271836 C19.4694853,13.271836 19.5165441,14.6864528 19.5165441,15.097148 L19.5165441,21.0294118 L23.28125,21.0294118 Z"/>
</svg>
