<svg xmlns="http://www.w3.org/2000/svg" xmlns:xlink="http://www.w3.org/1999/xlink" width="20" height="20" viewBox="0 0 20 20">
  <defs>
    <path id="link-colour-green-a" d="M16.6037214,9 L0.994771168,9 C0.450925395,9 0,9.44771525 0,10 C0,10.5561352 0.445374222,11 0.994771168,11 L16.6037214,11 L11.2905985,16.3079247 C10.9031338,16.6950104 10.9031338,17.3226002 11.2905985,17.7096858 C11.6780632,18.0967714 12.3062676,18.0967714 12.6937324,17.7096858 L19.7094015,10.7008805 C20.0968662,10.3137949 20.0968662,9.6862051 19.7094015,9.29911947 L12.6937324,2.29031422 C12.3062676,1.90322859 11.6780632,1.90322859 11.2905985,2.29031422 C10.9031338,2.67739984 10.9031338,3.30498964 11.2905985,3.69207527 L16.6037214,9 L16.6037214,9 Z"/>
    <mask id="link-colour-green-b" width="20" height="16" x="0" y="0" fill="#fff">
      <use xlink:href="#link-colour-green-a"/>
    </mask>
  </defs>
  <use fill="none" fill-rule="evenodd" stroke="#00E3BF" stroke-width="2" mask="url(#link-colour-green-b)" xlink:href="#link-colour-green-a"/>
</svg>
