<svg xmlns="http://www.w3.org/2000/svg" width="20" height="20" viewBox="0 0 20 20">
  <path fill="#675EFF" fill-rule="evenodd" d="M12.2818031,13.9635923 C11.1140017,14.7958071 9.68511683,15.2853054 8.14191516,15.2853054 C4.19754413,15.2853054 1,12.087431 1,8.1426527 C1,4.19787434 4.19754413,1 8.14191516,1 C12.0862862,1 15.2838303,4.19787434 15.2838303,8.1426527 C15.2838303,9.68601373 14.7943825,11.1150462 13.9622537,12.2829681 L18.654745,16.9759441 C19.1170379,17.4382846 19.1131835,18.1780534 18.6545778,18.6367065 L18.6348854,18.6564009 C18.1774527,19.1138809 17.4328077,19.1151289 16.9742944,18.6565682 L12.2818031,13.9635923 L12.2818031,13.9635923 Z M8.14191516,13.6046812 C11.1581989,13.6046812 13.6033797,11.159248 13.6033797,8.1426527 C13.6033797,5.12605745 11.1581989,2.68062416 8.14191516,2.68062416 C5.1256314,2.68062416 2.68045063,5.12605745 2.68045063,8.1426527 C2.68045063,11.159248 5.1256314,13.6046812 8.14191516,13.6046812 L8.14191516,13.6046812 L8.14191516,13.6046812 Z"/>
</svg>
