<svg width="30" height="30" viewBox="0 0 30 30" xmlns="http://www.w3.org/2000/svg" xmlns:xlink="http://www.w3.org/1999/xlink"><title>746D9D97-DCF0-4E61-BCE6-9E719D2C6FB7</title><defs><circle id="a" cx="15" cy="15" r="15"/><mask id="b" x="0" y="0" width="30" height="30" fill="#fff"><use xlink:href="#a"/></mask></defs><g fill="none" fill-rule="evenodd"><use stroke="#FFF" mask="url(#b)" stroke-width="2" xlink:href="#a"/><path d="M23 10.663a.26.26 0 0 0-.257-.26c-.08 0-.63.235-.776.275.193-.225.633-.912.633-1.202a.259.259 0 0 0-.256-.257.278.278 0 0 0-.128.039c-.545.298-1.065.533-1.672.662-.6-.581-1.416-.92-2.256-.92-1.776 0-3.232 1.46-3.232 3.258 0 .13.008.267.032.396a8.15 8.15 0 0 1-4.744-2.081c-.32-.29-.592-.604-.88-.927a.25.25 0 0 0-.216-.097c-.088 0-.16.063-.2.129-.288.427-.44 1.12-.44 1.638 0 .75.256 1.484.736 2.065-.152-.05-.384-.201-.52-.201-.167 0-.312.12-.312.29 0 1.129.616 2.178 1.56 2.767-.072-.009-.136-.033-.208-.033a.256.256 0 0 0-.248.25c0 .032.008.057.016.088a3.233 3.233 0 0 0 2.336 2.172 5.655 5.655 0 0 1-3 .854c-.24 0-.48-.04-.712-.04a.26.26 0 0 0-.256.259c0 .088.048.16.12.217.208.154.463.282.696.404a8.652 8.652 0 0 0 4 .983c3.487 0 6.472-1.887 7.912-5.097.52-1.155.824-2.42.8-3.688v-.267c.543-.41 1.072-.944 1.432-1.532a.285.285 0 0 0 .04-.144" fill="#FFF"/></g></svg>