<svg width="50" height="50" viewBox="0 0 50 50" xmlns="http://www.w3.org/2000/svg"><title>CE60CFF1-FC30-4E26-AECB-EAB3E42207A3</title><path d="M25 50C11.193 50 0 38.807 0 25S11.193 0 25 0s25 11.193 25 25-11.193 25-25 25zm0-1.667c12.887 0 23.333-10.446 23.333-23.333C48.333 12.113 37.887 1.667 25 1.667 12.113 1.667 1.667 12.113 1.667 25c0 12.887 10.446 23.333 23.333 23.333zm13.333-30.562a.475.475 0 0 1-.067.241c-.599.98-1.48 1.868-2.386 2.554v.444c.04 2.112-.467 4.222-1.333 6.146-2.4 5.351-7.375 8.496-13.187 8.496a14.42 14.42 0 0 1-6.667-1.638c-.387-.204-.813-.418-1.16-.674-.12-.094-.2-.215-.2-.362 0-.23.187-.432.427-.432.387 0 .787.068 1.187.068 1.76 0 3.493-.483 5-1.425-1.841-.43-3.307-1.803-3.893-3.619-.014-.052-.028-.094-.028-.146 0-.215.187-.418.414-.418.12 0 .226.041.346.056-1.573-.983-2.6-2.73-2.6-4.613 0-.283.242-.483.522-.483.226 0 .612.254.866.336a5.407 5.407 0 0 1-1.227-3.442c0-.863.252-2.018.733-2.73.066-.11.186-.215.334-.215.16 0 .253.04.36.162.48.538.933 1.062 1.465 1.544 2.187 1.978 4.975 3.216 7.908 3.47a3.636 3.636 0 0 1-.054-.66c0-2.999 2.427-5.431 5.387-5.431 1.4 0 2.76.565 3.76 1.533 1.012-.215 1.879-.606 2.786-1.104a.463.463 0 0 1 .214-.065c.24 0 .427.201.427.43 0 .482-.734 1.627-1.055 2.003.242-.067 1.161-.458 1.294-.458.241 0 .427.203.427.432z" fill-rule="nonzero" fill="#00E3BF"/></svg>