<svg xmlns="http://www.w3.org/2000/svg" width="30" height="30" viewBox="0 0 30 30">
  <path fill="#00E3BF" d="M15,30 C6.71572875,30 0,23.2842712 0,15 C0,6.71572875 6.71572875,0 15,0 C23.2842712,0 30,6.71572875 30,15 C30,23.2842712 23.2842712,30 15,30 Z M15,29 C22.7319865,29 29,22.7319865 29,15 C29,7.2680135 22.7319865,1 15,1 C7.2680135,1 1,7.2680135 1,15 C1,22.7319865 7.2680135,29 15,29 Z M23,10.6626092 C23,10.7193812 22.9831108,10.7668264 22.9597877,10.8073778 C22.6002895,11.3949682 22.0710954,11.9282197 21.5278269,12.3394113 L21.5278269,12.6062398 C21.5515522,13.8734724 21.2479492,15.1390829 20.7280039,16.2935825 C19.2880006,19.5044457 16.3034422,21.3913043 12.8162297,21.3913043 C11.4240791,21.3913043 10.0480135,21.0522943 8.81550587,20.4083374 C8.58348078,20.2862775 8.32813254,20.1577295 8.12023484,20.0040395 C8.04825479,19.947673 8,19.8750859 8,19.7866838 C8,19.6492144 8.11219238,19.52756 8.25615249,19.52756 C8.48817758,19.52756 8.72824513,19.5681115 8.96791057,19.5681115 C10.0242882,19.5681115 11.0637767,19.2785742 11.9681518,18.7136926 C10.8635194,18.4557854 9.98407592,17.6317801 9.63221811,16.5421628 C9.62417565,16.5105327 9.61573106,16.4857963 9.61573106,16.4541662 C9.61573106,16.3252126 9.72752131,16.2035583 9.8642432,16.2035583 C9.93622326,16.2035583 9.99975873,16.2282947 10.0713367,16.237216 C9.12795561,15.647598 8.51190285,14.5989377 8.51190285,13.4691745 C8.51190285,13.2996695 8.6566672,13.1796372 8.8247547,13.1796372 C8.96027023,13.1796372 9.19229532,13.3317051 9.34429789,13.3811779 C8.86416278,12.8000757 8.60841242,12.0656891 8.60841242,11.3158929 C8.60841242,10.7984565 8.75961074,10.1050268 9.04793309,9.67802012 C9.08774328,9.61232678 9.15972334,9.54906653 9.24819045,9.54906653 C9.34429789,9.54906653 9.40019302,9.5733974 9.46413061,9.64598448 C9.75245295,9.96917948 10.0242882,10.2834532 10.3435741,10.5725849 C11.6557021,11.7591202 13.3281325,12.5020226 15.0882258,12.6540905 C15.0640984,12.5247314 15.0556539,12.3888841 15.0556539,12.2583084 C15.0556539,10.4594464 16.5121441,9 18.2879202,9 C19.1279556,9 19.9438636,9.33901006 20.5438314,9.91970672 C21.1514396,9.79075313 21.6713849,9.55596028 22.2158597,9.25750166 C22.2560721,9.23479285 22.3035226,9.21857228 22.3437349,9.21857228 C22.4880972,9.21857228 22.6002895,9.33901006 22.6002895,9.47647945 C22.6002895,9.76561124 22.1595625,10.4525527 21.9673476,10.6784242 C22.112112,10.6378728 22.663825,10.4034854 22.7434454,10.4034854 C22.8882097,10.4034854 23,10.5251398 23,10.6626092 Z"/>
</svg>
